<svg xmlns="http://www.w3.org/2000/svg" viewBox="0 0 800 600" width="800" height="600" role="img"><defs>
  <linearGradient id="sky" x1="0" y1="0" x2="0" y2="1">
    <stop offset="0" stop-color="#eaf3ec"/><stop offset="1" stop-color="#f7faf6"/>
  </linearGradient>
  <linearGradient id="skyWarm" x1="0" y1="0" x2="0" y2="1">
    <stop offset="0" stop-color="#fdf3dc"/><stop offset="1" stop-color="#f7faf6"/>
  </linearGradient>
  <linearGradient id="deep" x1="0" y1="0" x2="1" y2="1">
    <stop offset="0" stop-color="#084f2b"/><stop offset="1" stop-color="#0b6b3a"/>
  </linearGradient>
  <linearGradient id="wall" x1="0" y1="0" x2="1" y2="0">
    <stop offset="0" stop-color="#ffffff"/><stop offset="1" stop-color="#eef3ee"/>
  </linearGradient>
  <linearGradient id="floor" x1="0" y1="0" x2="0" y2="1">
    <stop offset="0" stop-color="#d8c3a1"/><stop offset="1" stop-color="#c2a883"/>
  </linearGradient>
  <linearGradient id="turf" x1="0" y1="0" x2="0" y2="1">
    <stop offset="0" stop-color="#2f8f52"/><stop offset="1" stop-color="#084f2b"/>
  </linearGradient>
  <linearGradient id="glass" x1="0" y1="0" x2="1" y2="1">
    <stop offset="0" stop-color="#cfe6f2"/><stop offset="1" stop-color="#9fc6da"/>
  </linearGradient>
  <linearGradient id="goldGrad" x1="0" y1="0" x2="0" y2="1">
    <stop offset="0" stop-color="#ffd166"/><stop offset="1" stop-color="#f2a900"/>
  </linearGradient>
  <filter id="soft" x="-20%" y="-20%" width="140%" height="140%">
    <feDropShadow dx="0" dy="6" stdDeviation="10" flood-color="#0e1a14" flood-opacity=".18"/>
  </filter>
  <filter id="tight" x="-20%" y="-20%" width="140%" height="140%">
    <feDropShadow dx="0" dy="3" stdDeviation="4" flood-color="#0e1a14" flood-opacity=".22"/>
  </filter>
  
</defs><rect width="800" height="600" fill="url(#skyWarm)"/>
  <circle cx="668" cy="104" r="50" fill="#ffd166" opacity=".55"/>
  <g><rect x="78" y="249.6" width="8" height="50.400000000000006" rx="3" fill="#6b4f34"/><ellipse cx="82" cy="201.0" rx="51.336" ry="61.2" fill="#084f2b"/><ellipse cx="58.816" cy="224.4" rx="34.775999999999996" ry="43.199999999999996" fill="#084f2b" opacity=".85"/><ellipse cx="106.84" cy="220.8" rx="33.12" ry="41.4" fill="#084f2b" opacity=".9"/></g><g><rect x="720" y="251.2" width="8" height="44.800000000000004" rx="3" fill="#6b4f34"/><ellipse cx="724" cy="208.0" rx="45.632000000000005" ry="54.400000000000006" fill="#0b6b3a"/><ellipse cx="703.392" cy="228.8" rx="30.912000000000003" ry="38.4" fill="#0b6b3a" opacity=".85"/><ellipse cx="746.08" cy="225.6" rx="29.440000000000005" ry="36.800000000000004" fill="#0b6b3a" opacity=".9"/></g>
  <g filter="url(#soft)">
  <rect x="280" y="154" width="260" height="146" rx="4" fill="#e8e2d4"/>
  <path d="M266 154 L410.0 92.68 L554 154 Z" fill="#5a6b60"/>
  <rect x="389.2" y="224.07999999999998" width="41.6" height="75.92" rx="3" fill="#084f2b"/>
  <circle cx="426.9" cy="262.04" r="2.6" fill="#f2a900"/>
  <rect x="311.2" y="194.88" width="52.0" height="37.96" rx="3" fill="url(#glass)"/>
  <rect x="456.8" y="194.88" width="52.0" height="37.96" rx="3" fill="url(#glass)"/>
</g>
  <ellipse cx="256" cy="289.0" rx="24.0" ry="13.0" fill="#084f2b" opacity=".9"/>
  <path d="M0 300 h800 v300 H0Z" fill="url(#turf)"/>
  <!-- driveway they're walking up -->
  <path d="M300 300 L200 600 L640 600 L520 300Z" fill="#cfd8d1"/>
  <path d="M300 300 L200 600M520 300 L640 600" stroke="#f7faf6" stroke-width="5"/>
  <g filter="url(#tight)">
  <ellipse cx="320" cy="524" rx="67.5" ry="7" fill="#0e1a14" opacity=".16"/>
  <rect x="305.0" y="435.0" width="12.750000000000002" height="85.0" rx="7" fill="#2f3a33"/>
  <rect x="322.25" y="435.0" width="12.750000000000002" height="85.0" rx="7" fill="#3a463f"/>
  <path d="M285.5 345.0 q34.5 -15.0 69.0 0 l4.5 100.0 q-39.0 17.5 -78.0 0 Z"
        fill="url(#deep)"/>
  <path d="M354.5 370.0 q16 50.0 10 85.0" stroke="#0b6b3a" stroke-width="21.25" stroke-linecap="round" fill="none"/>
  <circle cx="320" cy="322.6875" r="26.25" fill="#a9714a"/>
  <path d="M293.75 314.8125 q26.25 -22.3125 52.5 0 q-26.25 -13.125 -52.5 0Z" fill="#0e1a14" opacity=".8"/>
</g>
  <g filter="url(#tight)">
  <ellipse cx="486" cy="544" rx="70.74" ry="7" fill="#0e1a14" opacity=".16"/>
  <rect x="470.28" y="450.91999999999996" width="13.362" height="89.08000000000001" rx="7" fill="#2f3a33"/>
  <rect x="488.358" y="450.91999999999996" width="13.362" height="89.08000000000001" rx="7" fill="#3a463f"/>
  <path d="M449.844 356.6 q36.156 -15.719999999999999 72.312 0 l4.715999999999999 104.80000000000001 q-40.872 18.340000000000003 -81.744 0 Z"
        fill="url(#deep)"/>
  <path d="M449.844 382.8 q-16 52.400000000000006 -10 89.08000000000001" stroke="#0b6b3a" stroke-width="22.270000000000003" stroke-linecap="round" fill="none"/>
  <circle cx="486" cy="333.2165" r="27.509999999999998" fill="#f0cba8"/>
  <path d="M458.49 324.9635 q27.509999999999998 -23.383499999999998 55.019999999999996 0 q-27.509999999999998 -13.754999999999999 -55.019999999999996 0Z" fill="#0e1a14" opacity=".8"/>
</g>
  <!-- caddy + supplies -->
  <g filter="url(#tight)">
    <rect x="368" y="470" width="66" height="46" rx="8" fill="#084f2b"/>
    <path d="M382 470 q20 -24 40 0" stroke="#0e1a14" stroke-width="7" fill="none"/>
    <rect x="380" y="452" width="10" height="20" rx="4" fill="#f2a900"/>
  </g>
  <ellipse cx="400" cy="588" rx="280" ry="24" fill="#ffd166" opacity=".14"/></svg>